{
	"asset":{
		"generator":"Khronos glTF Blender I/O v4.2.83",
		"version":"2.0"
	},
	"extensionsUsed":[
		"KHR_materials_specular"
	],
	"scene":0,
	"scenes":[
		{
			"name":"Scene",
			"nodes":[
				0
			]
		}
	],
	"nodes":[
		{
			"mesh":0,
			"name":"shark_Model_RCFINAL",
			"rotation":[
				0.7071068286895752,
				0,
				0,
				0.7071068286895752
			]
		}
	],
	"materials":[
		{
			"alphaMode":"BLEND",
			"doubleSided":true,
			"extensions":{
				"KHR_materials_specular":{
					"specularFactor":0
				}
			},
			"name":"shark_Model_RCFINAL_u1_v1.001",
			"normalTexture":{
				"index":0,
				"scale":0
			},
			"pbrMetallicRoughness":{
				"baseColorTexture":{
					"index":1
				},
				"metallicFactor":0
			}
		}
	],
	"meshes":[
		{
			"name":"shark_Model_RCFINAL.001",
			"primitives":[
				{
					"attributes":{
						"POSITION":0,
						"NORMAL":1,
						"TEXCOORD_0":2,
						"COLOR_0":3,
						"COLOR_1":4
					},
					"indices":5,
					"material":0
				}
			]
		}
	],
	"textures":[
		{
			"sampler":0,
			"source":0
		},
		{
			"sampler":0,
			"source":1
		}
	],
	"images":[
		{
			"mimeType":"image/png",
			"name":"shark_Model_RCFINAL_<UVTILE>_normal",
			"uri":"shark_Model_RCFINAL_UVTILE_normal.png"
		},
		{
			"mimeType":"image/png",
			"name":"shark_Model_RCFINAL_<UVTILE>_diffuse",
			"uri":"shark_Model_RCFINAL_UVTILE_diffuse.png"
		}
	],
	"accessors":[
		{
			"bufferView":0,
			"componentType":5126,
			"count":546624,
			"max":[
				16.674083709716797,
				15.14855670928955,
				-24.235727310180664
			],
			"min":[
				-18.502927780151367,
				-25.30880355834961,
				-76.02925872802734
			],
			"type":"VEC3"
		},
		{
			"bufferView":1,
			"componentType":5126,
			"count":546624,
			"type":"VEC3"
		},
		{
			"bufferView":2,
			"componentType":5126,
			"count":546624,
			"type":"VEC2"
		},
		{
			"bufferView":3,
			"componentType":5121,
			"count":546624,
			"normalized":true,
			"type":"VEC4"
		},
		{
			"bufferView":4,
			"componentType":5126,
			"count":546624,
			"type":"VEC3"
		},
		{
			"bufferView":5,
			"componentType":5125,
			"count":3000000,
			"type":"SCALAR"
		}
	],
	"bufferViews":[
		{
			"buffer":0,
			"byteLength":6559488,
			"byteOffset":0,
			"target":34962
		},
		{
			"buffer":0,
			"byteLength":6559488,
			"byteOffset":6559488,
			"target":34962
		},
		{
			"buffer":0,
			"byteLength":4372992,
			"byteOffset":13118976,
			"target":34962
		},
		{
			"buffer":0,
			"byteLength":2186496,
			"byteOffset":17491968,
			"target":34962
		},
		{
			"buffer":0,
			"byteLength":6559488,
			"byteOffset":19678464,
			"target":34962
		},
		{
			"buffer":0,
			"byteLength":12000000,
			"byteOffset":26237952,
			"target":34963
		}
	],
	"samplers":[
		{
			"magFilter":9729,
			"minFilter":9987
		}
	],
	"buffers":[
		{
			"byteLength":38237952,
			"uri":"shark.bin"
		}
	]
}
